<svg width="80" height="80" viewBox="0 0 80 80" fill="none" xmlns="http://www.w3.org/2000/svg">
<rect width="80" height="80" fill="white"/>
<path d="M52.8273 44.458C48.0904 39.7379 43.3177 42.4913 41.5235 44.458C39.7292 42.6702 35.5996 39.6309 30.2196 44.4583C24.906 49.2261 29.6808 56.2585 31.2962 58.404C31.8762 59.1744 32.3694 60.5495 32.3698 63.7678C32.3701 65.9133 35.0608 70.7407 37.2143 70.7407C38.8291 70.7407 38.8291 68.0588 38.8291 66.4497V66.449C38.8291 65.0493 38.8291 62.1583 41.5235 59.4768C43.6766 61.6223 44.2148 64.3042 44.2148 66.4497C44.2148 67.4185 44.1072 70.7407 45.8297 70.7407C47.9828 70.7407 50.6742 66.1956 50.6742 63.2314C50.6742 60.2672 51.2124 58.9404 51.7507 58.404C54.0833 55.7221 57.5641 49.1781 52.8273 44.458Z" fill="white"/>
<path d="M40.4123 43.3469L39.8895 43.8717C40.0327 44.0143 40.2279 44.0923 40.43 44.0875C40.632 44.0827 40.8233 43.9955 40.9596 43.8462L40.4123 43.3469ZM50.6396 57.293L51.1625 57.8177L51.1812 57.799L51.1985 57.7791L50.6396 57.293ZM43.1037 65.3386H43.8445H43.1037ZM40.4123 58.3657L40.9352 57.841C40.6463 57.5531 40.1789 57.5529 39.8898 57.8407L40.4123 58.3657ZM29.1085 43.3472L29.6032 43.8985V43.8985L29.1085 43.3472ZM30.1851 57.293L30.7768 56.8474L30.1851 57.293ZM40.9596 43.8462C41.7729 42.9547 43.2746 41.8797 45.0858 41.5695C46.8477 41.2677 48.9867 41.6728 51.1933 43.8716L52.239 42.8222C49.7088 40.301 47.093 39.7227 44.8357 40.1093C42.6278 40.4874 40.846 41.7725 39.8651 42.8477L40.9596 43.8462ZM51.1933 43.8716C53.338 46.0088 53.6354 48.5426 53.1058 50.9234C52.5695 53.3346 51.1886 55.5329 50.0807 56.8069L51.1985 57.7791C52.4231 56.371 53.9489 53.9564 54.552 51.2451C55.1618 48.5034 54.8311 45.4052 52.239 42.8222L51.1933 43.8716ZM50.1168 56.7683C49.7224 57.1612 49.4047 57.7635 49.183 58.6082C48.96 59.4579 48.8223 60.5981 48.8223 62.1203H50.3038C50.3038 60.6784 50.4352 59.6731 50.616 58.9842C50.798 58.2904 51.0185 57.9611 51.1625 57.8177L50.1168 56.7683ZM48.8223 62.1203C48.8223 63.4187 48.2166 65.1598 47.3201 66.5939C46.8768 67.303 46.3854 67.8991 45.9038 68.309C45.4089 68.7302 45.0037 68.8889 44.7186 68.8889V70.3704C45.51 70.3704 46.2486 69.9609 46.8639 69.4372C47.4925 68.9023 48.0776 68.1769 48.5763 67.3792C49.5638 65.7997 50.3038 63.7862 50.3038 62.1203H48.8223ZM44.7186 68.8889C44.5743 68.8889 44.4659 68.8386 44.3433 68.6662C44.1997 68.4641 44.0778 68.1375 43.9918 67.7036C43.8209 66.8398 43.8445 65.8527 43.8445 65.3386H42.363C42.363 65.7933 42.3328 66.9517 42.5386 67.9913C42.6411 68.509 42.8152 69.0734 43.1358 69.5245C43.4775 70.0053 44.0016 70.3704 44.7186 70.3704V68.8889ZM43.8445 65.3386C43.8445 63.0783 43.2768 60.1743 40.9352 57.841L39.8895 58.8904C41.8541 60.8481 42.363 63.3079 42.363 65.3386H43.8445ZM40.9352 42.8222C39.9987 41.8891 38.3901 40.5613 36.2482 40.1396C34.0548 39.7077 31.4479 40.2529 28.6138 42.7958L29.6032 43.8985C32.1491 41.6141 34.297 41.2653 35.962 41.5931C37.6784 41.9311 39.0317 43.0169 39.8895 43.8717L40.9352 42.8222ZM28.6138 42.7958C25.6788 45.4294 25.5562 48.7106 26.3349 51.5025C27.1049 54.263 28.7724 56.6482 29.5933 57.7385L30.7768 56.8474C29.9823 55.7922 28.4548 53.5885 27.7619 51.1044C27.0778 48.6518 27.2246 46.0328 29.6032 43.8985L28.6138 42.7958ZM29.5933 57.7385C30.026 58.3132 30.5175 59.4874 30.5179 62.6568L31.9994 62.6566C31.999 59.3896 31.5042 57.8135 30.7768 56.8474L29.5933 57.7385ZM30.5179 62.6568C30.518 63.3228 30.7207 64.1238 31.0203 64.9139C31.3249 65.7175 31.7518 66.5676 32.2492 67.3464C32.7443 68.1219 33.3259 68.8528 33.9497 69.3991C34.5565 69.9304 35.299 70.3704 36.1032 70.3704V68.8889C35.8306 68.8889 35.4292 68.7254 34.9257 68.2845C34.4394 67.8586 33.9445 67.2486 33.4978 66.5491C33.0532 65.8529 32.6728 65.0938 32.4056 64.3888C32.1332 63.6704 31.9995 63.0634 31.9994 62.6566L30.5179 62.6568ZM36.1032 70.3704C36.7477 70.3704 37.2541 70.0881 37.6092 69.6555C37.9402 69.2525 38.1253 68.7403 38.2378 68.2547C38.4624 67.285 38.4588 66.1226 38.4588 65.3386H36.9773C36.9773 66.1637 36.9737 67.1469 36.7945 67.9204C36.7051 68.3064 36.5875 68.5653 36.4643 68.7154C36.3653 68.8359 36.266 68.8889 36.1032 68.8889V70.3704ZM38.4588 65.3386C38.4588 63.9796 38.4613 61.3525 40.9349 58.8907L39.8898 57.8407C36.9739 60.7427 36.9773 63.8987 36.9773 65.3386H38.4588Z" fill="black"/>
<path d="M52.9428 41.268C47.6938 36.2885 42.4052 39.1932 40.4169 41.268C38.4287 39.3819 33.8527 36.1756 27.8911 41.2682C24.1351 44.4768 24.9281 48.6574 26.4594 51.8519H40.4544H54.4493C55.9113 48.6237 56.3838 44.5324 52.9428 41.268Z" fill="white"/>
<path d="M53.6835 42.0087C48.4346 37.0292 43.1459 39.9339 41.1577 42.0087C39.1695 40.1226 34.5935 36.9163 28.6319 42.0089C24.8759 45.2175 25.6688 49.3982 27.2002 52.5926H41.1951H55.1901C56.652 49.3644 57.1245 45.2731 53.6835 42.0087Z" fill="#F0F9FF"/>
<rect x="12.2222" y="11.4814" width="59.2593" height="5.92593" rx="1.48148" fill="#DAEDFB"/>
<rect x="11.1111" y="10.3704" width="59.2593" height="5.92593" rx="1.48148" stroke="black" stroke-width="1.48148"/>
<path d="M41.5023 31.1112H40.366C40.1353 31.1112 39.9178 31.0037 39.7776 30.8204L35.3375 25.0141C35.2387 24.8849 35.1852 24.7268 35.1852 24.5641V18.1482C35.1852 17.7391 35.5168 17.4075 35.9259 17.4075H46.2963C46.7054 17.4075 47.037 17.7391 47.037 18.1482V24.5491C47.037 24.7209 46.9773 24.8874 46.8681 25.02L42.0741 30.8413C41.9334 31.0122 41.7236 31.1112 41.5023 31.1112Z" fill="#DAEDFB"/>
<path d="M40 30.3704V32.5185C40 32.9276 39.6683 33.2593 39.2592 33.2593H23.7037C23.2946 33.2593 22.963 33.5909 22.963 34V39.2593C22.963 39.6684 23.2946 40 23.7037 40H29.6296" stroke="#C7E0F2" stroke-width="1.48148"/>
<path d="M40.3912 30.0001H39.2549C39.0242 30.0001 38.8067 29.8926 38.6665 29.7093L34.2264 23.903C34.1276 23.7738 34.0741 23.6157 34.0741 23.453V17.0371C34.0741 16.628 34.4057 16.2964 34.8148 16.2964H45.1852C45.5943 16.2964 45.9259 16.628 45.9259 17.0371V23.438C45.9259 23.6098 45.8662 23.7763 45.757 23.9089L40.963 29.7302C40.8222 29.9011 40.6125 30.0001 40.3912 30.0001Z" stroke="black" stroke-width="1.48148"/>
<path d="M40.4123 43.3469L39.8895 43.8717C40.0327 44.0143 40.2279 44.0923 40.43 44.0875C40.632 44.0827 40.8233 43.9955 40.9596 43.8462L40.4123 43.3469ZM51.7162 43.3469L52.239 42.8222L51.7162 43.3469ZM50.6396 57.293L51.1625 57.8177L51.1812 57.799L51.1985 57.7791L50.6396 57.293ZM43.1037 65.3386H43.8445H43.1037ZM40.4123 58.3657L40.9352 57.841C40.6463 57.5531 40.1789 57.5529 39.8898 57.8407L40.4123 58.3657ZM29.1085 43.3472L29.6032 43.8985V43.8985L29.1085 43.3472ZM30.1851 57.293L30.7768 56.8474L30.1851 57.293ZM40.274 42.2084C39.9641 41.9413 39.4964 41.9759 39.2293 42.2858C38.9622 42.5956 38.9968 43.0634 39.3067 43.3305L40.274 42.2084ZM37.3542 42.0491C37.7258 42.2201 38.1657 42.0574 38.3367 41.6858C38.5077 41.3141 38.345 40.8742 37.9734 40.7032L37.3542 42.0491ZM36.1862 40.1276C35.7841 40.0521 35.397 40.3169 35.3215 40.7189C35.246 41.121 35.5107 41.5082 35.9128 41.5837L36.1862 40.1276ZM33.6734 41.6184C34.0734 41.5324 34.3279 41.1384 34.2419 40.7384C34.1559 40.3385 33.7619 40.084 33.362 40.17L33.6734 41.6184ZM31.5992 40.7682C31.2281 40.9404 31.0669 41.3809 31.2391 41.752C31.4114 42.123 31.8518 42.2842 32.2229 42.112L31.5992 40.7682ZM30.2213 43.3751C30.5413 43.1203 30.5942 42.6543 30.3393 42.3342C30.0845 42.0142 29.6185 41.9614 29.2984 42.2162L30.2213 43.3751ZM28.0107 43.3877C27.7323 43.6875 27.7496 44.1562 28.0493 44.4346C28.3491 44.713 28.8178 44.6957 29.0962 44.396L28.0107 43.3877ZM27.9387 46.1182C28.1065 45.7451 27.9401 45.3066 27.567 45.1388C27.1939 44.9709 26.7554 45.1373 26.5876 45.5104L27.9387 46.1182ZM26.07 47.1492C25.9925 47.5509 26.2552 47.9394 26.6569 48.0169C27.0586 48.0945 27.4471 47.8317 27.5246 47.43L26.07 47.1492ZM27.453 49.5273C27.4094 49.1205 27.0443 48.8261 26.6375 48.8697C26.2307 48.9133 25.9363 49.2784 25.9799 49.6852L27.453 49.5273ZM26.2849 51.3178C26.3888 51.7135 26.7938 51.95 27.1895 51.846C27.5852 51.7421 27.8217 51.3371 27.7178 50.9414L26.2849 51.3178ZM28.4632 53.0121C28.2949 52.6393 27.8562 52.4734 27.4833 52.6418C27.1104 52.8101 26.9446 53.2488 27.1129 53.6217L28.4632 53.0121ZM27.841 55.0626C28.0404 55.4199 28.4916 55.5478 28.8488 55.3484C29.206 55.149 29.334 54.6978 29.1346 54.3406L27.841 55.0626ZM30.3355 56.2421C30.0998 55.9078 29.6376 55.8279 29.3033 56.0636C28.9689 56.2994 28.889 56.7615 29.1248 57.0959L30.3355 56.2421ZM30.0119 58.5283C30.155 58.9116 30.5817 59.1062 30.965 58.963C31.3482 58.8199 31.5428 58.3931 31.3997 58.0099L30.0119 58.5283ZM31.9768 61.5152C31.9598 61.1065 31.6146 60.7889 31.2059 60.806C30.7971 60.823 30.4796 61.1682 30.4966 61.5769L31.9768 61.5152ZM30.6498 63.7082C30.74 64.1072 31.1365 64.3576 31.5356 64.2675C31.9346 64.1773 32.185 63.7808 32.0949 63.3817L30.6498 63.7082ZM33.0033 65.7004C32.8115 65.3391 32.3631 65.2016 32.0017 65.3933C31.6404 65.5851 31.5029 66.0335 31.6946 66.3949L33.0033 65.7004ZM32.7023 68.0086C32.9444 68.3383 33.408 68.4093 33.7378 68.1672C34.0675 67.925 34.1385 67.4614 33.8964 67.1317L32.7023 68.0086ZM35.5768 68.74C35.2114 68.556 34.7661 68.7029 34.582 69.0683C34.3979 69.4336 34.5449 69.879 34.9103 70.0631L35.5768 68.74ZM37.5476 69.7274C37.8205 69.4227 37.7948 68.9544 37.4901 68.6814C37.1854 68.4084 36.7171 68.4342 36.4441 68.7389L37.5476 69.7274ZM36.9665 66.3236C36.9539 66.7326 37.2751 67.0743 37.684 67.087C38.0929 67.0997 38.4346 66.7785 38.4473 66.3696L36.9665 66.3236ZM38.4689 64.5959C38.484 64.1871 38.1648 63.8435 37.7559 63.8284C37.3471 63.8133 37.0035 64.1325 36.9884 64.5413L38.4689 64.5959ZM37.3535 62.0893C37.2436 62.4833 37.474 62.8919 37.868 63.0018C38.2621 63.1117 38.6706 62.8813 38.7805 62.4872L37.3535 62.0893ZM39.2784 61.1743C39.4577 60.8066 39.305 60.3632 38.9373 60.1839C38.5696 60.0046 38.1261 60.1573 37.9468 60.525L39.2784 61.1743ZM39.3258 58.4458C39.0585 58.7556 39.093 59.2233 39.4028 59.4905C39.7125 59.7578 40.1803 59.7233 40.4475 59.4135L39.3258 58.4458ZM40.3668 59.4085C40.6308 59.721 41.0981 59.7604 41.4107 59.4964C41.7232 59.2324 41.7626 58.7651 41.4986 58.4525L40.3668 59.4085ZM42.8419 60.5505C42.6682 60.1801 42.2272 60.0205 41.8568 60.1941C41.4863 60.3678 41.3268 60.8088 41.5004 61.1792L42.8419 60.5505ZM41.991 62.5035C42.1017 62.8973 42.5107 63.1268 42.9046 63.0161C43.2984 62.9054 43.5279 62.4964 43.4172 62.1025L41.991 62.5035ZM43.8196 64.5258C43.7944 64.1175 43.4429 63.8069 43.0346 63.8322C42.6263 63.8574 42.3157 64.2089 42.341 64.6172L43.8196 64.5258ZM42.3708 66.3667C42.3841 66.7756 42.7263 67.0963 43.1352 67.0831C43.544 67.0699 43.8648 66.7277 43.8515 66.3188L42.3708 66.3667ZM44.3957 68.7331C44.1273 68.4243 43.6595 68.3916 43.3507 68.6599C43.0419 68.9283 43.0091 69.3961 43.2775 69.7049L44.3957 68.7331ZM45.5902 70.2104C45.9751 70.0717 46.1746 69.6473 46.0359 69.2624C45.8972 68.8775 45.4727 68.678 45.0878 68.8168L45.5902 70.2104ZM46.3281 67.9027C46.0478 68.2006 46.0621 68.6694 46.36 68.9498C46.658 69.2301 47.1268 69.2158 47.4071 68.9179L46.3281 67.9027ZM48.2695 67.8448C48.503 67.5088 48.42 67.0472 48.0841 66.8137C47.7481 66.5802 47.2865 66.6633 47.053 66.9992L48.2695 67.8448ZM47.94 65.4577C47.7651 65.8275 47.9231 66.2691 48.2929 66.444C48.6627 66.6189 49.1043 66.4609 49.2792 66.0911L47.94 65.4577ZM49.7897 64.8426C49.9232 64.456 49.718 64.0342 49.3314 63.9006C48.9447 63.7671 48.5229 63.9723 48.3894 64.3589L49.7897 64.8426ZM48.7898 62.6696C48.744 63.0761 49.0365 63.4428 49.443 63.4886C49.8496 63.5343 50.2162 63.2419 50.262 62.8353L48.7898 62.6696ZM50.3258 61.1467C50.3453 60.7381 50.0298 60.3911 49.6211 60.3716C49.2125 60.3522 48.8654 60.6677 48.846 61.0763L50.3258 61.1467ZM49.4266 57.8659C49.2724 58.2448 49.4545 58.677 49.8335 58.8312C50.2124 58.9854 50.6446 58.8033 50.7988 58.4244L49.4266 57.8659ZM51.7143 57.1473C51.9637 56.823 51.903 56.3579 51.5787 56.1086C51.2544 55.8592 50.7893 55.9199 50.5399 56.2442L51.7143 57.1473ZM51.7483 54.3994C51.5495 54.757 51.6783 55.208 52.0359 55.4067C52.3935 55.6055 52.8445 55.4767 53.0432 55.1191L51.7483 54.3994ZM53.7588 53.6664C53.9206 53.2906 53.7471 52.8549 53.3714 52.6931C52.9956 52.5313 52.5599 52.7047 52.3981 53.0805L53.7588 53.6664ZM53.0861 51.0106C52.9939 51.4092 53.2422 51.807 53.6408 51.8992C54.0394 51.9914 54.4372 51.7431 54.5294 51.3445L53.0861 51.0106ZM54.7845 49.7105C54.8164 49.3027 54.5117 48.9461 54.1038 48.9142C53.696 48.8823 53.3395 49.1871 53.3075 49.5949L54.7845 49.7105ZM53.1926 47.4928C53.2732 47.8939 53.6636 48.1538 54.0647 48.0732C54.4658 47.9927 54.7256 47.6023 54.6451 47.2012L53.1926 47.4928ZM54.1422 45.5829C53.9808 45.2069 53.5452 45.033 53.1693 45.1944C52.7934 45.3558 52.6194 45.7913 52.7808 46.1673L54.1422 45.5829ZM51.6751 44.3941C51.9391 44.7067 52.4064 44.7461 52.719 44.4822C53.0315 44.2182 53.071 43.7509 52.807 43.4383L51.6751 44.3941ZM51.5723 42.2036C51.2623 41.9366 50.7946 41.9715 50.5277 42.2816C50.2607 42.5916 50.2956 43.0593 50.6056 43.3262L51.5723 42.2036ZM48.6481 42.0473C49.0204 42.217 49.4597 42.0528 49.6294 41.6805C49.799 41.3083 49.6348 40.8689 49.2626 40.6993L48.6481 42.0473ZM47.4738 40.1275C47.0718 40.0517 46.6844 40.3162 46.6087 40.7182C46.5329 41.1202 46.7974 41.5076 47.1994 41.5833L47.4738 40.1275ZM44.9366 41.5969C45.3381 41.5182 45.5997 41.129 45.521 40.7275C45.4423 40.326 45.0531 40.0644 44.6516 40.1431L44.9366 41.5969ZM42.8731 40.7083C42.4991 40.874 42.3302 41.3115 42.4959 41.6856C42.6616 42.0596 43.0991 42.2285 43.4732 42.0628L42.8731 40.7083ZM41.5088 43.3128C41.8176 43.0445 41.8504 42.5766 41.5821 42.2678C41.3137 41.9591 40.8458 41.9263 40.537 42.1946L41.5088 43.3128ZM40.9352 42.8222C40.7412 42.6289 40.5203 42.4207 40.274 42.2084L39.3067 43.3305C39.5222 43.5163 39.7168 43.6996 39.8895 43.8717L40.9352 42.8222ZM37.9734 40.7032C37.4296 40.453 36.8323 40.249 36.1862 40.1276L35.9128 41.5837C36.4251 41.6799 36.9065 41.8431 37.3542 42.0491L37.9734 40.7032ZM33.362 40.17C32.7899 40.293 32.2016 40.4886 31.5992 40.7682L32.2229 42.112C32.7299 41.8767 33.2137 41.7172 33.6734 41.6184L33.362 40.17ZM29.2984 42.2162C29.0716 42.3968 28.8434 42.5898 28.6138 42.7958L29.6032 43.8985C29.812 43.7111 30.0181 43.5369 30.2213 43.3751L29.2984 42.2162ZM28.6138 42.7958C28.3986 42.9889 28.1978 43.1863 28.0107 43.3877L29.0962 44.396C29.2518 44.2284 29.4205 44.0624 29.6032 43.8985L28.6138 42.7958ZM26.5876 45.5104C26.3451 46.0495 26.1763 46.5982 26.07 47.1492L27.5246 47.43C27.6102 46.9863 27.7454 46.5479 27.9387 46.1182L26.5876 45.5104ZM25.9799 49.6852C26.0395 50.2413 26.1457 50.7877 26.2849 51.3178L27.7178 50.9414C27.595 50.4739 27.5037 50.0008 27.453 49.5273L25.9799 49.6852ZM27.1129 53.6217C27.3429 54.1311 27.5906 54.6141 27.841 55.0626L29.1346 54.3406C28.9019 53.9237 28.6736 53.4784 28.4632 53.0121L27.1129 53.6217ZM29.1248 57.0959C29.298 57.3415 29.4568 57.5572 29.5933 57.7385L30.7768 56.8474C30.6479 56.6761 30.4984 56.4731 30.3355 56.2421L29.1248 57.0959ZM29.5933 57.7385C29.7351 57.9269 29.8798 58.1749 30.0119 58.5283L31.3997 58.0099C31.2208 57.5311 31.0093 57.1562 30.7768 56.8474L29.5933 57.7385ZM30.4966 61.5769C30.5105 61.9094 30.5179 62.2685 30.5179 62.6568L31.9994 62.6566C31.9994 62.2498 31.9916 61.87 31.9768 61.5152L30.4966 61.5769ZM30.5179 62.6568C30.518 62.9884 30.568 63.3459 30.6498 63.7082L32.0949 63.3817C32.0291 63.0905 31.9995 62.8468 31.9994 62.6566L30.5179 62.6568ZM31.6946 66.3949C31.991 66.9534 32.332 67.5044 32.7023 68.0086L33.8964 67.1317C33.5726 66.6908 33.2692 66.2016 33.0033 65.7004L31.6946 66.3949ZM34.9103 70.0631C35.2757 70.2472 35.6791 70.3704 36.1032 70.3704V68.8889C35.9676 68.8889 35.7932 68.849 35.5768 68.74L34.9103 70.0631ZM36.1032 70.3704C36.7059 70.3704 37.1932 70.1229 37.5476 69.7274L36.4441 68.7389C36.3541 68.8394 36.2603 68.8889 36.1032 68.8889V70.3704ZM38.4473 66.3696C38.4588 65.9988 38.4588 65.6432 38.4588 65.3386H36.9773C36.9773 65.6457 36.9772 65.9792 36.9665 66.3236L38.4473 66.3696ZM38.4588 65.3386C38.4588 65.1165 38.4588 64.8701 38.4689 64.5959L36.9884 64.5413C36.9772 64.8462 36.9773 65.1177 36.9773 65.3386H38.4588ZM38.7805 62.4872C38.8981 62.0657 39.0587 61.6249 39.2784 61.1743L37.9468 60.525C37.6847 61.0626 37.4932 61.5883 37.3535 62.0893L38.7805 62.4872ZM40.4475 59.4135C40.5979 59.2392 40.76 59.0648 40.9349 58.8907L39.8898 57.8407C39.6886 58.041 39.5008 58.2429 39.3258 58.4458L40.4475 59.4135ZM39.8895 58.8904C40.0596 59.0599 40.2185 59.2328 40.3668 59.4085L41.4986 58.4525C41.323 58.2446 41.1354 58.0405 40.9352 57.841L39.8895 58.8904ZM41.5004 61.1792C41.7052 61.6162 41.8663 62.06 41.991 62.5035L43.4172 62.1025C43.2722 61.5869 43.0836 61.0663 42.8419 60.5505L41.5004 61.1792ZM42.341 64.6172C42.3561 64.8629 42.363 65.1039 42.363 65.3386H43.8445C43.8445 65.0752 43.8368 64.8037 43.8196 64.5258L42.341 64.6172ZM42.363 65.3386C42.363 65.5533 42.3569 65.9347 42.3708 66.3667L43.8515 66.3188C43.8386 65.9187 43.8445 65.581 43.8445 65.3386H42.363ZM43.2775 69.7049C43.6221 70.1014 44.1057 70.3704 44.7186 70.3704V68.8889C44.5846 68.8889 44.4934 68.8455 44.3957 68.7331L43.2775 69.7049ZM44.7186 70.3704C45.0203 70.3704 45.3132 70.3103 45.5902 70.2104L45.0878 68.8168C44.9452 68.8682 44.8227 68.8889 44.7186 68.8889V70.3704ZM47.4071 68.9179C47.7104 68.5955 47.9997 68.2328 48.2695 67.8448L47.053 66.9992C46.8189 67.336 46.5747 67.6406 46.3281 67.9027L47.4071 68.9179ZM49.2792 66.0911C49.4723 65.6829 49.6443 65.2635 49.7897 64.8426L48.3894 64.3589C48.2624 64.7266 48.111 65.0961 47.94 65.4577L49.2792 66.0911ZM50.262 62.8353C50.2892 62.594 50.3038 62.3548 50.3038 62.1203H48.8223C48.8223 62.2936 48.8115 62.4772 48.7898 62.6696L50.262 62.8353ZM50.3038 62.1203C50.3038 61.7713 50.3115 61.4473 50.3258 61.1467L48.846 61.0763C48.8305 61.402 48.8223 61.7496 48.8223 62.1203H50.3038ZM50.7988 58.4244C50.9327 58.0952 51.0664 57.9134 51.1625 57.8177L50.1168 56.7683C49.8475 57.0365 49.6159 57.4008 49.4266 57.8659L50.7988 58.4244ZM51.1985 57.7791C51.367 57.5854 51.5398 57.3742 51.7143 57.1473L50.5399 56.2442C50.3827 56.4486 50.2287 56.6367 50.0807 56.8069L51.1985 57.7791ZM53.0432 55.1191C53.2974 54.6618 53.5396 54.1754 53.7588 53.6664L52.3981 53.0805C52.2 53.5405 51.9801 53.9823 51.7483 54.3994L53.0432 55.1191ZM54.5294 51.3445C54.6526 50.8121 54.7411 50.2655 54.7845 49.7105L53.3075 49.5949C53.2704 50.0695 53.1942 50.543 53.0861 51.0106L54.5294 51.3445ZM54.6451 47.2012C54.536 46.6578 54.3712 46.1164 54.1422 45.5829L52.7808 46.1673C52.9679 46.603 53.1029 47.046 53.1926 47.4928L54.6451 47.2012ZM52.807 43.4383C52.6306 43.2294 52.4414 43.0239 52.239 42.8222L51.1933 43.8716C51.3663 44.044 51.5266 44.2183 51.6751 44.3941L52.807 43.4383ZM52.239 42.8222C52.0177 42.6017 51.7954 42.3956 51.5723 42.2036L50.6056 43.3262C50.8005 43.494 50.9965 43.6755 51.1933 43.8716L52.239 42.8222ZM49.2626 40.6993C48.6597 40.4245 48.0614 40.2382 47.4738 40.1275L47.1994 41.5833C47.6687 41.6718 48.1529 41.8216 48.6481 42.0473L49.2626 40.6993ZM44.6516 40.1431C44.017 40.2675 43.4209 40.4656 42.8731 40.7083L43.4732 42.0628C43.9306 41.8601 44.4213 41.6979 44.9366 41.5969L44.6516 40.1431ZM40.537 42.1946C40.2862 42.4126 40.0611 42.6328 39.8651 42.8477L40.9596 43.8462C41.1153 43.6755 41.2992 43.4951 41.5088 43.3128L40.537 42.1946Z" fill="black"/>
<path d="M40.4169 41.268L39.9071 41.8054C40.2029 42.0859 40.6697 42.0748 40.9518 41.7805L40.4169 41.268ZM52.9428 41.268L53.4526 40.7306V40.7306L52.9428 41.268ZM27.8911 41.2682L28.3723 41.8314V41.8314L27.8911 41.2682ZM26.4594 51.8519L25.7915 52.1721L25.9931 52.5926H26.4594V51.8519ZM54.4493 51.8519V52.5926H54.927L55.1241 52.1575L54.4493 51.8519ZM40.9518 41.7805C41.8587 40.8341 43.5391 39.6859 45.5763 39.3537C47.57 39.0286 49.9729 39.4716 52.4329 41.8054L53.4526 40.7306C50.6637 38.0848 47.7978 37.4905 45.3379 37.8915C42.9214 38.2856 40.9634 39.6271 39.8821 40.7555L40.9518 41.7805ZM40.9267 40.7306C39.8904 39.7474 38.1231 38.3622 35.7805 37.923C33.3931 37.4755 30.537 38.0338 27.41 40.705L28.3723 41.8314C31.2069 39.41 33.6195 39.0252 35.5076 39.3791C37.4404 39.7415 38.9553 40.9024 39.9071 41.8054L40.9267 40.7306ZM27.41 40.705C25.3718 42.4461 24.541 44.4877 24.4525 46.5333C24.3653 48.5475 24.9983 50.5175 25.7915 52.1721L27.1274 51.5317C26.3892 49.9918 25.86 48.2742 25.9326 46.5974C26.0038 44.9518 26.6545 43.2988 28.3723 41.8314L27.41 40.705ZM52.4329 41.8054C55.5466 44.7592 55.1729 48.4585 53.7746 51.5463L55.1241 52.1575C56.6496 48.7889 57.221 44.3056 53.4526 40.7306L52.4329 41.8054ZM26.4594 52.5926H40.4544V51.1111H26.4594V52.5926ZM40.4544 52.5926H54.4493V51.1111H40.4544V52.5926Z" fill="#C7E0F2"/>
</svg>
