<svg width="80" height="80" viewBox="0 0 80 80" fill="none" xmlns="http://www.w3.org/2000/svg">
<g clip-path="url(#clip0_1_4972)">
<rect width="80" height="80" fill="white"/>
<path d="M26.2246 49.4692L26.6271 48.8473L26.0888 48.499L25.6669 48.9817L26.2246 49.4692ZM33.1111 53.9255L32.7086 54.5474L33.2453 54.8947L33.6674 54.4146L33.1111 53.9255ZM70.578 12.1002C70.5517 11.6919 70.1995 11.3822 69.7912 11.4085L63.1383 11.8365C62.7301 11.8627 62.4204 12.215 62.4467 12.6232C62.4729 13.0315 62.8252 13.3411 63.2334 13.3149L69.1471 12.9345L69.5275 18.8482C69.5538 19.2564 69.906 19.5661 70.3143 19.5398C70.7226 19.5136 71.0322 19.1613 71.006 18.7531L70.578 12.1002ZM11.1731 67.8137C11.4423 67.5057 11.4109 67.0377 11.1029 66.7685C10.7948 66.4993 10.3269 66.5307 10.0576 66.8387L11.1731 67.8137ZM11.4349 65.2631C11.1657 65.5711 11.1971 66.0391 11.5051 66.3083C11.8131 66.5775 12.2811 66.5461 12.5503 66.2381L11.4349 65.2631ZM13.4685 65.1877C13.7378 64.8797 13.7063 64.4117 13.3983 64.1425C13.0903 63.8732 12.6224 63.9047 12.3531 64.2127L13.4685 65.1877ZM13.7304 62.6371C13.4612 62.9451 13.4926 63.413 13.8006 63.6823C14.1086 63.9515 14.5766 63.9201 14.8458 63.6121L13.7304 62.6371ZM15.764 62.5616C16.0333 62.2536 16.0018 61.7857 15.6938 61.5164C15.3858 61.2472 14.9178 61.2786 14.6486 61.5866L15.764 62.5616ZM16.0259 60.011C15.7567 60.319 15.7881 60.787 16.0961 61.0562C16.4041 61.3255 16.8721 61.294 17.1413 60.986L16.0259 60.011ZM18.0595 59.9356C18.3287 59.6276 18.2973 59.1596 17.9893 58.8904C17.6813 58.6212 17.2133 58.6526 16.9441 58.9606L18.0595 59.9356ZM18.3214 57.385C18.0521 57.693 18.0836 58.161 18.3916 58.4302C18.6996 58.6994 19.1675 58.668 19.4368 58.36L18.3214 57.385ZM20.355 57.3096C20.6242 57.0016 20.5928 56.5336 20.2848 56.2644C19.9768 55.9951 19.5088 56.0266 19.2396 56.3346L20.355 57.3096ZM20.6169 54.759C20.3476 55.067 20.379 55.5349 20.6871 55.8042C20.9951 56.0734 21.463 56.042 21.7323 55.734L20.6169 54.759ZM22.6505 54.6836C22.9197 54.3755 22.8883 53.9076 22.5803 53.6383C22.2723 53.3691 21.8043 53.4005 21.5351 53.7085L22.6505 54.6836ZM22.9123 52.1329C22.6431 52.4409 22.6745 52.9089 22.9825 53.1781C23.2906 53.4474 23.7585 53.4159 24.0278 53.1079L22.9123 52.1329ZM24.9459 52.0575C25.2152 51.7495 25.1838 51.2816 24.8757 51.0123C24.5677 50.7431 24.0998 50.7745 23.8305 51.0825L24.9459 52.0575ZM25.2078 49.5069C24.9386 49.8149 24.97 50.2829 25.278 50.5521C25.586 50.8213 26.054 50.7899 26.3232 50.4819L25.2078 49.5069ZM26.5108 50.5367C26.8543 50.759 27.3129 50.6607 27.5352 50.3173C27.7574 49.9738 27.6592 49.5152 27.3157 49.2929L26.5108 50.5367ZM29.3816 50.6298C29.0382 50.4076 28.5796 50.5058 28.3573 50.8493C28.1351 51.1927 28.2333 51.6513 28.5768 51.8736L29.3816 50.6298ZM29.9541 52.7649C30.2975 52.9871 30.7561 52.8889 30.9784 52.5454C31.2006 52.2019 31.1024 51.7433 30.7589 51.5211L29.9541 52.7649ZM32.8249 52.858C32.4814 52.6357 32.0228 52.734 31.8005 53.0774C31.5783 53.4209 31.6765 53.8795 32.02 54.1017L32.8249 52.858ZM34.1571 53.8575C34.4272 53.5503 34.3971 53.0822 34.0899 52.8121C33.7826 52.542 33.3146 52.5721 33.0444 52.8794L34.1571 53.8575ZM34.5136 51.2083C34.2434 51.5155 34.2736 51.9836 34.5808 52.2537C34.8881 52.5238 35.3561 52.4937 35.6262 52.1864L34.5136 51.2083ZM36.6056 51.0723C36.8757 50.7651 36.8456 50.2971 36.5384 50.0269C36.2311 49.7568 35.7631 49.7869 35.493 50.0942L36.6056 51.0723ZM36.9621 48.4231C36.692 48.7303 36.7221 49.1984 37.0293 49.4685C37.3366 49.7386 37.8046 49.7085 38.0747 49.4012L36.9621 48.4231ZM39.0541 48.2872C39.3242 47.9799 39.2941 47.5119 38.9869 47.2418C38.6796 46.9716 38.2116 47.0018 37.9415 47.309L39.0541 48.2872ZM39.4106 45.6379C39.1405 45.9451 39.1706 46.4132 39.4778 46.6833C39.7851 46.9534 40.2531 46.9233 40.5232 46.616L39.4106 45.6379ZM41.5026 45.502C41.7728 45.1947 41.7426 44.7267 41.4354 44.4566C41.1281 44.1865 40.6601 44.2166 40.39 44.5238L41.5026 45.502ZM41.8591 42.8527C41.589 43.16 41.6191 43.628 41.9263 43.8981C42.2336 44.1682 42.7016 44.1381 42.9718 43.8309L41.8591 42.8527ZM43.9512 42.7168C44.2213 42.4095 44.1912 41.9415 43.8839 41.6714C43.5767 41.4013 43.1086 41.4314 42.8385 41.7386L43.9512 42.7168ZM44.3076 40.0675C44.0375 40.3748 44.0676 40.8428 44.3749 41.1129C44.6821 41.383 45.1502 41.3529 45.4203 41.0457L44.3076 40.0675ZM46.3997 39.9316C46.6698 39.6244 46.6397 39.1563 46.3324 38.8862C46.0252 38.6161 45.5571 38.6462 45.287 38.9534L46.3997 39.9316ZM46.7561 37.2823C46.486 37.5896 46.5161 38.0576 46.8234 38.3277C47.1306 38.5979 47.5987 38.5677 47.8688 38.2605L46.7561 37.2823ZM48.8482 37.1464C49.1183 36.8392 49.0882 36.3711 48.7809 36.101C48.4737 35.8309 48.0056 35.861 47.7355 36.1683L48.8482 37.1464ZM49.2046 34.4971C48.9345 34.8044 48.9646 35.2724 49.2719 35.5426C49.5791 35.8127 50.0472 35.7826 50.3173 35.4753L49.2046 34.4971ZM51.2967 34.3612C51.5668 34.054 51.5367 33.5859 51.2295 33.3158C50.9222 33.0457 50.4542 33.0758 50.184 33.3831L51.2967 34.3612ZM51.6532 31.712C51.383 32.0192 51.4132 32.4873 51.7204 32.7574C52.0277 33.0275 52.4957 32.9974 52.7658 32.6901L51.6532 31.712ZM53.7452 31.576C54.0153 31.2688 53.9852 30.8008 53.678 30.5306C53.3707 30.2605 52.9027 30.2906 52.6326 30.5979L53.7452 31.576ZM54.1017 28.9268C53.8316 29.234 53.8617 29.7021 54.1689 29.9722C54.4762 30.2423 54.9442 30.2122 55.2143 29.9049L54.1017 28.9268ZM56.1937 28.7909C56.4638 28.4836 56.4337 28.0156 56.1265 27.7455C55.8192 27.4753 55.3512 27.5055 55.0811 27.8127L56.1937 28.7909ZM56.5502 26.1416C56.2801 26.4488 56.3102 26.9169 56.6174 27.187C56.9247 27.4571 57.3927 27.427 57.6628 27.1198L56.5502 26.1416ZM58.6422 26.0057C58.9123 25.6984 58.8822 25.2304 58.575 24.9603C58.2677 24.6902 57.7997 24.7203 57.5296 25.0275L58.6422 26.0057ZM58.9987 23.3564C58.7286 23.6637 58.7587 24.1317 59.0659 24.4018C59.3732 24.6719 59.8412 24.6418 60.1114 24.3346L58.9987 23.3564ZM61.0908 23.2205C61.3609 22.9132 61.3308 22.4452 61.0235 22.1751C60.7163 21.905 60.2482 21.9351 59.9781 22.2423L61.0908 23.2205ZM61.4472 20.5712C61.1771 20.8785 61.2072 21.3465 61.5145 21.6166C61.8217 21.8867 62.2897 21.8566 62.5599 21.5494L61.4472 20.5712ZM63.5393 20.4353C63.8094 20.1281 63.7793 19.66 63.472 19.3899C63.1648 19.1198 62.6967 19.1499 62.4266 19.4572L63.5393 20.4353ZM63.8957 17.786C63.6256 18.0933 63.6557 18.5613 63.963 18.8314C64.2702 19.1016 64.7383 19.0715 65.0084 18.7642L63.8957 17.786ZM65.9878 17.6501C66.2579 17.3429 66.2278 16.8748 65.9205 16.6047C65.6133 16.3346 65.1452 16.3647 64.8751 16.672L65.9878 17.6501ZM66.3442 15.0009C66.0741 15.3081 66.1042 15.7762 66.4115 16.0463C66.7187 16.3164 67.1868 16.2863 67.4569 15.979L66.3442 15.0009ZM68.4363 14.8649C68.7064 14.5577 68.6763 14.0897 68.369 13.8195C68.0618 13.5494 67.5937 13.5795 67.3236 13.8868L68.4363 14.8649ZM68.7927 12.2157C68.5226 12.5229 68.5527 12.991 68.86 13.2611C69.1672 13.5312 69.6353 13.5011 69.9054 13.1938L68.7927 12.2157ZM10.714 68.3389L11.1731 67.8137L10.0576 66.8387L9.59854 67.3639L10.714 68.3389ZM12.5503 66.2381L13.4685 65.1877L12.3531 64.2127L11.4349 65.2631L12.5503 66.2381ZM14.8458 63.6121L15.764 62.5616L14.6486 61.5866L13.7304 62.6371L14.8458 63.6121ZM17.1413 60.986L18.0595 59.9356L16.9441 58.9606L16.0259 60.011L17.1413 60.986ZM19.4368 58.36L20.355 57.3096L19.2396 56.3346L18.3214 57.385L19.4368 58.36ZM21.7323 55.734L22.6505 54.6836L21.5351 53.7085L20.6169 54.759L21.7323 55.734ZM24.0278 53.1079L24.9459 52.0575L23.8305 51.0825L22.9123 52.1329L24.0278 53.1079ZM26.3232 50.4819L26.7823 49.9567L25.6669 48.9817L25.2078 49.5069L26.3232 50.4819ZM25.8222 50.0911L26.5108 50.5367L27.3157 49.2929L26.6271 48.8473L25.8222 50.0911ZM28.5768 51.8736L29.9541 52.7649L30.7589 51.5211L29.3816 50.6298L28.5768 51.8736ZM32.02 54.1017L32.7086 54.5474L33.5135 53.3036L32.8249 52.858L32.02 54.1017ZM33.6674 54.4146L34.1571 53.8575L33.0444 52.8794L32.5547 53.4364L33.6674 54.4146ZM35.6262 52.1864L36.6056 51.0723L35.493 50.0942L34.5136 51.2083L35.6262 52.1864ZM38.0747 49.4012L39.0541 48.2872L37.9415 47.309L36.9621 48.4231L38.0747 49.4012ZM40.5232 46.616L41.5026 45.502L40.39 44.5238L39.4106 45.6379L40.5232 46.616ZM42.9718 43.8309L43.9512 42.7168L42.8385 41.7386L41.8591 42.8527L42.9718 43.8309ZM45.4203 41.0457L46.3997 39.9316L45.287 38.9534L44.3076 40.0675L45.4203 41.0457ZM47.8688 38.2605L48.8482 37.1464L47.7355 36.1683L46.7561 37.2823L47.8688 38.2605ZM50.3173 35.4753L51.2967 34.3612L50.184 33.3831L49.2046 34.4971L50.3173 35.4753ZM52.7658 32.6901L53.7452 31.576L52.6326 30.5979L51.6532 31.712L52.7658 32.6901ZM55.2143 29.9049L56.1937 28.7909L55.0811 27.8127L54.1017 28.9268L55.2143 29.9049ZM57.6628 27.1198L58.6422 26.0057L57.5296 25.0275L56.5502 26.1416L57.6628 27.1198ZM60.1114 24.3346L61.0908 23.2205L59.9781 22.2423L58.9987 23.3564L60.1114 24.3346ZM62.5599 21.5494L63.5393 20.4353L62.4266 19.4572L61.4472 20.5712L62.5599 21.5494ZM65.0084 18.7642L65.9878 17.6501L64.8751 16.672L63.8957 17.786L65.0084 18.7642ZM67.4569 15.979L68.4363 14.8649L67.3236 13.8868L66.3442 15.0009L67.4569 15.979ZM69.9054 13.1938L70.3951 12.6368L69.2825 11.6586L68.7927 12.2157L69.9054 13.1938Z" fill="black"/>
<path d="M10.1562 12.1477V67.8514H69.8388" stroke="black" stroke-width="1.48148" stroke-linecap="round"/>
<circle cx="45.979" cy="35.5125" r="15.9153" fill="white"/>
<circle cx="44.9952" cy="34.5179" r="15.9153" stroke="black" stroke-width="1.48148"/>
<path d="M55.941 35.5121C56.4903 35.5121 56.9404 35.9584 56.8905 36.5055C56.7906 37.6018 56.5255 38.6788 56.1028 39.6994C55.5529 41.0269 54.747 42.2331 53.7309 43.2491C52.7149 44.2652 51.5087 45.0711 50.1811 45.621C48.8536 46.1709 47.4308 46.4539 45.9939 46.4539C44.557 46.4539 43.1342 46.1709 41.8066 45.621C40.4791 45.0711 39.2729 44.2652 38.2569 43.2491C37.2408 42.2331 36.4349 41.0269 35.885 39.6994C35.4622 38.6788 35.1972 37.6018 35.0973 36.5055C35.0474 35.9584 35.4974 35.5121 36.0468 35.5121L45.9939 35.5121H55.941Z" fill="#F0F9FF"/>
<path d="M55.1016 38.7047C55.5244 37.6841 55.7894 36.6072 55.8894 35.5108C55.9392 34.9637 55.4892 34.5175 54.9398 34.5175H44.9927L35.0456 34.5175C34.4963 34.5175 34.0462 34.9637 34.0961 35.5108C34.1961 36.6072 34.4611 37.6841 34.8838 38.7047C35.4337 40.0322 36.2397 41.2385 37.2557 42.2545C38.2718 43.2705 39.478 44.0765 40.8055 44.6264C42.133 45.1763 43.5558 45.4593 44.9927 45.4593C46.4296 45.4593 47.8525 45.1763 49.18 44.6264C50.5075 44.0765 51.7137 43.2705 52.7298 42.2545C53.7458 41.2385 54.5518 40.0322 55.1016 38.7047Z" stroke="#C7E0F2" stroke-width="1.48148"/>
</g>
<defs>
<clipPath id="clip0_1_4972">
<rect width="80" height="80" fill="white"/>
</clipPath>
</defs>
</svg>
