<svg width="80" height="80" viewBox="0 0 80 80" fill="none" xmlns="http://www.w3.org/2000/svg">
<rect width="80" height="80" fill="white"/>
<circle cx="52.5806" cy="32.2408" r="18.8277" fill="#F0F9FF"/>
<circle cx="50.9429" cy="31.422" r="18.8277" stroke="black" stroke-width="1.48148"/>
<line x1="44.3912" y1="22.4939" x2="58.3074" y2="22.4939" stroke="white" stroke-width="1.48148"/>
<line x1="44.3912" y1="27.4057" x2="58.3074" y2="27.4057" stroke="white" stroke-width="1.48148"/>
<path d="M45.2072 22.4968L48.5174 22.4967C49.7453 22.4964 53.8025 22.8256 53.8025 27.3275C53.8025 31.4207 48.8909 31.4207 45.2072 31.4207L53.8025 40.4252" stroke="white" stroke-width="1.48148" stroke-linejoin="bevel"/>
<line x1="43.5718" y1="22.4949" x2="57.4879" y2="22.4949" stroke="black" stroke-width="1.48148"/>
<line x1="43.5718" y1="27.4067" x2="57.4879" y2="27.4067" stroke="black" stroke-width="1.48148"/>
<path d="M44.4398 22.4949L47.7447 22.4947C48.9725 22.4943 52.983 22.8273 52.983 27.3292C52.983 31.4224 48.0714 31.4224 44.3878 31.4224L52.983 40.427" stroke="black" stroke-width="1.48148" stroke-linejoin="bevel"/>
<path d="M19.0145 44.4282L28.8376 39.5166C30.7477 38.5616 34.1585 37.0607 38.6608 38.698C42.1012 39.9492 48.7002 42.5808 52.1676 44.0187C57.9418 46.4133 55.7511 52.276 50.3626 51.3309C51.8185 51.6632 53.3486 51.4142 54.6255 50.6339L68.1303 42.3815C72.6326 39.5164 75.9069 46.0067 72.6326 48.1117C68.0484 51.0586 57.0792 58.2077 51.7583 61.6185C50.9788 62.1181 49.1388 62.2734 46.8468 61.6185C44.5547 60.9636 34.9771 57.7984 30.4748 56.2976L26.7911 57.9348L19.0145 44.4282Z" fill="white"/>
<path d="M19.8362 46.0659L29.6594 41.1543C31.5694 40.1993 34.9803 38.6984 39.4825 40.3357C42.923 41.5869 49.522 44.2185 52.9894 45.6564C58.7635 48.051 56.5729 53.9137 51.1844 52.9686C52.6403 53.3009 54.1703 53.0519 55.4472 52.2716L68.952 44.0192C73.4543 41.1541 76.7287 47.6444 73.4543 49.7494C68.8702 52.6963 57.901 59.8454 52.5801 63.2562C51.8006 63.7558 49.9606 63.9111 47.6685 63.2562C45.3764 62.6013 35.7989 59.4361 31.2966 57.9353L27.6129 59.5725L19.8362 46.0659Z" fill="white"/>
<path d="M18.1507 42.9654L9.55734 47.8759C8.76963 48.326 8.49815 49.3309 8.95203 50.1165L17.9427 65.6772C18.3986 66.4662 19.411 66.7312 20.1949 66.2666L28.4521 61.3735C29.2147 60.9215 29.4791 59.9448 29.0486 59.1699L20.3941 43.5918C19.9513 42.7947 18.9425 42.513 18.1507 42.9654Z" fill="#DAEDFB"/>
<path d="M15.94 42.475L7.34668 47.3854C6.55897 47.8356 6.28749 48.8404 6.74137 49.626L15.732 65.1867C16.1879 65.9757 17.2003 66.2407 17.9843 65.7761L26.2414 60.883C27.004 60.4311 27.2685 59.4543 26.838 58.6794L18.1835 43.1013C17.7406 42.3042 16.7318 42.0225 15.94 42.475Z" stroke="black" stroke-width="1.48148"/>
<path d="M49.3026 51.0671C55.442 53.0318 58.3071 46.5649 52.1676 44.0187C48.7002 42.5808 42.1012 39.9492 38.6608 38.698C34.1585 37.0607 30.7477 38.5616 28.8376 39.5166L19.0145 44.4282L26.7911 57.9348L30.4748 56.2976C34.9771 57.7984 44.5547 60.9636 46.8468 61.6185C49.1388 62.2734 50.9788 62.1181 51.7583 61.6185C57.0792 58.2077 68.0484 51.0586 72.6326 48.1117C75.9069 46.0067 72.6326 39.5164 68.1303 42.3815L54.6255 50.6339C53.315 51.4347 51.7378 51.676 50.2479 51.3035L49.3026 51.0671ZM49.3026 51.0671C46.8468 50.2813 43.1631 49.1758 41.1166 48.521L49.3026 51.0671Z" stroke="black" stroke-width="1.48148"/>
</svg>
